<?xml version="1.0" encoding="UTF-8"?>
<!DOCTYPE svg PUBLIC "-//W3C//DTD SVG 1.1//EN" "http://www.w3.org/Graphics/SVG/1.1/DTD/svg11.dtd">
<svg xmlns="http://www.w3.org/2000/svg" xml:space="preserve" width="91.6688mm" height="76.9471mm" version="1.1" style="shape-rendering:geometricPrecision; text-rendering:geometricPrecision; image-rendering:optimizeQuality; fill-rule:evenodd; clip-rule:evenodd"
viewBox="0 0 8914.52 7482.88"
 xmlns:xlink="http://www.w3.org/1999/xlink">
 <defs>
  <style type="text/css">
   <![CDATA[
    .fil0 {fill:#61ADEC}
    .fil2 {fill:#CC3539}
    .fil4 {fill:#D7676A}
    .fil3 {fill:#E9B5B0}
    .fil1 {fill:#FCFCFC}
   ]]>
  </style>
 </defs>
 <g id="Layer_x0020_1">
  <metadata id="CorelCorpID_0Corel-Layer"/>
  <g id="_592420840">
   <path class="fil0" d="M4874.6 3283.88c97.39,424.08 186.6,735.69 345.57,1110.01 154.82,364.52 435.99,812.48 493.37,957.06 -232.87,-250.48 -1272.75,-1695.5 -1323.91,-1914.5l-216.12 80.76c36.75,106.61 234.92,349.77 309.21,441.4 29.87,36.87 60.69,69.84 86.07,105.7 110.07,155.57 438.45,497.75 523.23,606.57 295.51,379.26 372.33,381.82 732.27,930.98 41.01,62.6 244.1,500.76 244.42,501.02 21.36,17.09 583.8,201.17 585.76,527.52 1.28,215.7 34.75,54.57 86.59,289.77l-1261.52 -182.41c-476.39,-105.6 -831.93,-353.41 -1141.78,-629.72 -73.85,-65.88 -104.2,-98.44 -169.51,-172.37 -34.56,-39.12 -58.79,-54.02 -93.24,-97.9 -24.19,-30.81 -49.82,-61.29 -75.41,-95.22 -216.78,-287.42 -496.47,-812.55 -571.27,-1185.33 83.62,35.78 168.02,108.1 269.97,123.81 -106.23,-202.37 -381.6,-554.05 -437.63,-804.38 -395.68,128.13 -1309.84,653.18 -1681.65,943.45 -59.41,46.37 -156.48,102.31 -200.61,159.56 24.89,512.45 -64.09,1227.05 72.88,1682.33l3.67 7.14c264.48,528.14 566.04,592.83 1102.55,592.9 1692.08,0.21 3409.01,16.3 5097.56,-0.45l-1.73 -4198.33c-371.58,-138.1 -1046.27,-114.3 -1451.58,-63.67 -489.91,61.23 -876.6,177.82 -1327.15,284.31z"/>
   <path class="fil0" d="M1381.51 4415.31c125.64,-68.64 259.52,-168.39 394.06,-251.31 137.02,-84.42 281.09,-159.47 423.46,-237.3 287.71,-157.32 583.9,-293.43 893.08,-427.39 -112.19,-341.11 -303.12,-976.85 -274.69,-1362.68l350.74 559.68c-9.3,-85.89 -159.65,-565.18 -212.28,-989.68 -45.26,-365.08 -60.99,-813.2 -37.54,-1182.33l36.09 82.64c6.63,23.89 13.02,59.67 19.33,86.13 15.49,65.14 30.43,121.57 47.74,187.11 175.02,662.45 573.9,1778.08 922.92,2279.63l636.57 -197.48c0.34,-217.22 125.93,-884.84 214.96,-1056.06l38.82 976.35c173.89,-18.45 456.36,-108.48 645.78,-152.13 218.52,-50.35 451.47,-91.24 680.92,-127.2 516.62,-80.96 971.51,-105.5 1494.47,-55.9 -4.37,-357.95 -0.78,-718.18 -0.72,-1076.39 0.05,-359.19 44.6,-649.14 -142.63,-925.38 -156.64,-231.13 -326.13,-334.66 -734,-334.04l-5396.69 0.47 -0.41 4203.28z"/>
   <path class="fil1" d="M7844.54 4263.75l0 -895.39c259.73,137.44 255.83,212.29 255.83,426.38 0,63.37 -72.21,214.25 -101.94,260.46 -24.9,38.69 -44.72,68.44 -68.29,102.27l-46.47 60.13c-2.78,3.37 -6.86,8.53 -9.55,11.76l-29.57 34.4zm-6389.59 2405.37c-4.74,0.43 -69.54,5.34 -70.85,5.19 -100.28,-10.96 55.37,18.94 -36.88,-6.8 -4.44,-1.24 -10.82,-6.16 -14.23,-7.42 -3.31,-1.23 -8.79,-5.56 -12.86,-8.78 -291.77,-25.94 -634.76,-146.37 -845.92,-282.8 -596.34,-385.3 -112.9,-1095.19 270.55,-1444.4 184.47,-167.99 599.37,-473.57 636.74,-508.8l0.41 -4203.28 5396.69 -0.47c407.87,-0.61 577.37,102.92 734,334.04 187.23,276.24 142.68,566.19 142.63,925.38 -0.06,358.21 -3.65,718.44 0.72,1076.39 534.8,68.18 1154.98,318.94 1053.25,923.83 -55.3,328.89 -360.71,718.34 -578.8,907.71l-284.08 234.17c-13.49,24.16 -1.27,16.89 -37.14,42.1 -15.11,10.62 -51.07,27.62 -74.49,40.7l104.34 -117.21c152.49,-157.29 452.78,-499.15 463.03,-847.63 10.93,-372.05 -320.78,-591.76 -648.75,-667.81l1.73 4198.33c-1688.55,16.75 -3405.48,0.66 -5097.56,0.45 -536.51,-0.07 -838.07,-64.76 -1102.55,-592.9zm-261.85 -2362.72c-166.7,88.2 -626.68,487.89 -740.66,623.75 -36.57,43.61 -31.47,50.09 -74.66,95.87 -493.87,523.49 -595.82,1323.44 261.02,1668.09 165.25,66.47 371.32,128.41 562.86,161.97 223.75,39.21 123.06,4.62 276.75,213.59 171.26,232.86 512.95,413.22 823.27,413.22l5329.68 0c99.22,0 171.2,-58.97 200.02,-141.1 36.15,-103.05 13.16,-2296.38 13.16,-2459.8 132.5,-88.73 252.18,-213.66 346.61,-292.96 40.85,-34.3 42.89,-25.54 85.4,-63.84l298.69 -340.87c362.07,-478.62 540.22,-1114.93 -14.32,-1532.34l-314.17 -176.16c-102.09,-40.18 -272.18,-106.54 -402.21,-109.44l0 -1364.4c0,-480.92 -403.07,-1001.99 -874.06,-1001.99l-5670.79 0c-39.66,59.2 -88.72,78.94 -103.45,152.38l-3.14 4154.02z"/>
   <path class="fil1" d="M3260.67 3876.64c56.03,250.33 331.4,602.01 437.63,804.38 -101.94,-15.72 -186.34,-88.04 -269.97,-123.81 74.8,372.78 354.49,897.9 571.27,1185.33 25.59,33.93 51.22,64.42 75.41,95.22 34.45,43.88 58.68,58.78 93.24,97.9 65.31,73.93 95.66,106.5 169.51,172.37 309.85,276.32 665.38,524.12 1141.78,629.72l1261.52 182.41c-51.84,-235.2 -85.31,-74.06 -86.59,-289.77 -1.95,-326.35 -564.4,-510.43 -585.76,-527.52 -0.32,-0.25 -203.41,-438.42 -244.42,-501.02 -359.94,-549.15 -436.76,-551.71 -732.27,-930.98 -84.78,-108.82 -413.15,-451 -523.23,-606.57 -25.38,-35.86 -56.2,-68.83 -86.07,-105.7 -74.29,-91.64 -272.46,-334.79 -309.21,-441.4 -134.84,23.52 -792.01,288.92 -912.84,359.43z"/>
   <path class="fil2" d="M4834.78 2882.61l-253.79 79.71 -636.57 197.48 -852.31 339.51c-309.18,133.96 -605.37,270.07 -893.08,427.39 -142.37,77.84 -286.44,152.88 -423.46,237.3 -134.54,82.91 -268.42,182.67 -394.06,251.31 -37.37,35.22 -452.28,340.8 -636.74,508.8 -383.45,349.21 -866.89,1059.1 -270.55,1444.4 211.16,136.44 554.15,256.87 845.92,282.8l4.52 -27.51c-237.54,-19.07 -793.51,-301.07 -631.48,-813.34 30.13,-95.24 70.63,-168.42 119.22,-243.39 132.45,-204.37 378.48,-438.44 566.01,-587.42 44.13,-57.25 141.2,-113.2 200.61,-159.56 371.8,-290.27 1285.97,-815.32 1681.65,-943.45 120.83,-70.51 778,-335.91 912.84,-359.43l216.12 -80.76 77.73 -28.12 83.76 -19.92 323.48 -104.52c450.55,-106.5 837.24,-223.08 1327.15,-284.31 405.31,-50.64 1080,-74.43 1451.58,63.67 327.98,76.05 659.69,295.76 648.75,667.81 -10.25,348.48 -310.54,690.35 -463.03,847.63l7.29 34.42 284.08 -234.17c218.09,-189.38 523.49,-578.82 578.8,-907.71 101.73,-604.89 -518.45,-855.65 -1053.25,-923.83 -522.97,-49.61 -977.86,-25.06 -1494.47,55.9 -229.45,35.96 -462.4,76.84 -680.92,127.2 -189.42,43.65 -471.89,133.69 -645.78,152.13z"/>
   <path class="fil1" d="M3092.12 3499.31l852.31 -339.51c-349.02,-501.55 -747.91,-1617.18 -922.92,-2279.63 -17.31,-65.54 -32.25,-121.98 -47.74,-187.11 -6.31,-26.46 -12.7,-62.24 -19.33,-86.13l-36.09 -82.64c-23.46,369.13 -7.72,817.25 37.54,1182.33 52.63,424.5 202.98,903.79 212.28,989.68l-350.74 -559.68c-28.43,385.84 162.5,1021.57 274.69,1362.68z"/>
   <path class="fil1" d="M852 6011.88c0,-133.43 67.2,-239.64 123.57,-324.11 61.66,-92.38 130.12,-192.96 217.53,-251.5l0 916.71c-102.32,-23.84 -341.1,-173.29 -341.1,-341.1zm472.66 611.92l126.63 38.18c-136.96,-455.27 -47.99,-1169.87 -72.88,-1682.33 -187.53,148.98 -433.56,383.05 -566.01,587.42 -48.59,74.97 -89.1,148.15 -119.22,243.39 -162.02,512.27 393.95,794.27 631.48,813.34z"/>
   <path class="fil1" d="M4551.12 3388.4l-4.78 135.41 -78.97 -115.49 -77.73 28.12c51.16,219 1091.04,1664.02 1323.91,1914.5 -57.39,-144.58 -338.56,-592.54 -493.37,-957.06 -158.97,-374.31 -248.17,-685.92 -345.57,-1110.01l-323.48 104.52z"/>
   <path class="fil1" d="M4581 2962.32l253.79 -79.71 -38.82 -976.35c-89.04,171.22 -214.62,838.84 -214.96,1056.06z"/>
   <polygon class="fil0" points="4467.36,3408.32 4546.33,3523.81 4551.12,3388.4 "/>
   <path class="fil3" d="M1454.95 6669.12l-3.67 -7.14 -126.63 -38.18 -4.52 27.51c4.06,3.22 9.55,7.56 12.86,8.78 3.4,1.26 9.78,6.18 14.23,7.42 92.25,25.74 -63.41,-4.16 36.88,6.8 1.31,0.15 66.12,-4.77 70.85,-5.19z"/>
   <path class="fil4" d="M7846.34 4613.09l-7.29 -34.42 -104.34 117.21c23.42,-13.08 59.38,-30.08 74.49,-40.7 35.86,-25.21 23.65,-17.94 37.14,-42.1z"/>
  </g>
 </g>
</svg>
